<svg xmlns="http://www.w3.org/2000/svg" xmlns:xlink="http://www.w3.org/1999/xlink" aria-hidden="true" focusable="false" width="1em" height="1em" style="-ms-transform: rotate(360deg); -webkit-transform: rotate(360deg); transform: rotate(360deg);" preserveAspectRatio="xMidYMid meet" viewBox="0 0 24 24"><path d="M16 10.27l-5-2.89a2 2 0 0 0-3 1.73v5.78a2 2 0 0 0 1 1.73a2 2 0 0 0 2 0l5-2.89a2 2 0 0 0 0-3.46zM15 12l-5 2.89V9.11L15 12zM12 2a10 10 0 1 0 10 10A10 10 0 0 0 12 2zm0 18a8 8 0 1 1 8-8a8 8 0 0 1-8 8z" fill="#626262"/></svg>